<svg width="155" height="35" viewBox="0 0 155 35" fill="none" xmlns="http://www.w3.org/2000/svg">
<path d="M0 2.64C0 0.88 0.88 0 2.64 0H12.624C14.352 0 15.92 0.192 17.328 0.576001C18.768 0.96 20 1.536 21.024 2.304C22.048 3.04 22.848 3.968 23.424 5.088C24 6.208 24.288 7.504 24.288 8.976C24.288 10.416 23.952 11.808 23.28 13.152C22.608 14.496 21.616 15.536 20.304 16.272V16.368C21.296 16.656 22.128 17.088 22.8 17.664C23.472 18.208 24.016 18.832 24.432 19.536C24.88 20.24 25.2 20.992 25.392 21.792C25.584 22.56 25.68 23.328 25.68 24.096C25.68 25.984 25.312 27.584 24.576 28.896C23.872 30.176 22.912 31.216 21.696 32.016C20.512 32.816 19.12 33.408 17.52 33.792C15.952 34.144 14.32 34.32 12.624 34.32H2.64C0.88 34.32 0 33.44 0 31.68V2.64ZM12.72 13.296C13.776 13.296 14.544 12.976 15.024 12.336C15.504 11.696 15.744 10.96 15.744 10.128C15.744 9.328 15.488 8.64 14.976 8.064C14.496 7.488 13.696 7.2 12.576 7.2H8.4V13.296H12.72ZM13.44 27.12C14.656 27.12 15.568 26.768 16.176 26.064C16.784 25.328 17.088 24.48 17.088 23.52C17.088 22.56 16.784 21.744 16.176 21.072C15.6 20.368 14.704 20.016 13.488 20.016H8.4V27.12H13.44Z" fill="white"/>
<path d="M26.7371 22.032C26.7371 20.08 27.1051 18.304 27.8411 16.704C28.5771 15.104 29.5691 13.744 30.8171 12.624C32.0971 11.472 33.5851 10.592 35.2811 9.984C36.9771 9.344 38.7851 9.024 40.7051 9.024C42.6571 9.024 44.4811 9.344 46.1771 9.984C47.9051 10.592 49.3931 11.472 50.6411 12.624C51.9211 13.744 52.9291 15.104 53.6651 16.704C54.4011 18.304 54.7691 20.08 54.7691 22.032C54.7691 23.952 54.4011 25.712 53.6651 27.312C52.9291 28.88 51.9211 30.24 50.6411 31.392C49.3931 32.512 47.9211 33.376 46.2251 33.984C44.5291 34.592 42.7051 34.896 40.7531 34.896C38.8011 34.896 36.9771 34.592 35.2811 33.984C33.5851 33.376 32.0971 32.512 30.8171 31.392C29.5691 30.24 28.5771 28.88 27.8411 27.312C27.1051 25.712 26.7371 23.952 26.7371 22.032ZM35.1371 22.032C35.1371 22.96 35.2811 23.792 35.5691 24.528C35.8891 25.264 36.3051 25.888 36.8171 26.4C37.3291 26.912 37.9211 27.312 38.5931 27.6C39.2651 27.856 39.9851 27.984 40.7531 27.984C41.5211 27.984 42.2411 27.856 42.9131 27.6C43.5851 27.312 44.1771 26.912 44.6891 26.4C45.2011 25.888 45.6011 25.264 45.8891 24.528C46.2091 23.792 46.3691 22.96 46.3691 22.032C46.3691 21.104 46.2091 20.272 45.8891 19.536C45.6011 18.768 45.2011 18.128 44.6891 17.616C44.1771 17.072 43.5851 16.656 42.9131 16.368C42.2411 16.08 41.5211 15.936 40.7531 15.936C39.9851 15.936 39.2651 16.08 38.5931 16.368C37.9211 16.656 37.3291 17.072 36.8171 17.616C36.3051 18.128 35.8891 18.768 35.5691 19.536C35.2811 20.272 35.1371 21.104 35.1371 22.032Z" fill="white"/>
<path d="M55.9178 22.032C55.9178 20.08 56.2858 18.304 57.0218 16.704C57.7578 15.104 58.7498 13.744 59.9978 12.624C61.2778 11.472 62.7657 10.592 64.4617 9.984C66.1577 9.344 67.9658 9.024 69.8858 9.024C71.8378 9.024 73.6618 9.344 75.3578 9.984C77.0858 10.592 78.5737 11.472 79.8217 12.624C81.1017 13.744 82.1097 15.104 82.8457 16.704C83.5817 18.304 83.9498 20.08 83.9498 22.032C83.9498 23.952 83.5817 25.712 82.8457 27.312C82.1097 28.88 81.1017 30.24 79.8217 31.392C78.5737 32.512 77.1017 33.376 75.4057 33.984C73.7097 34.592 71.8857 34.896 69.9337 34.896C67.9817 34.896 66.1577 34.592 64.4617 33.984C62.7657 33.376 61.2778 32.512 59.9978 31.392C58.7498 30.24 57.7578 28.88 57.0218 27.312C56.2858 25.712 55.9178 23.952 55.9178 22.032ZM64.3177 22.032C64.3177 22.96 64.4618 23.792 64.7498 24.528C65.0698 25.264 65.4858 25.888 65.9978 26.4C66.5098 26.912 67.1018 27.312 67.7738 27.6C68.4458 27.856 69.1657 27.984 69.9337 27.984C70.7017 27.984 71.4218 27.856 72.0938 27.6C72.7657 27.312 73.3578 26.912 73.8698 26.4C74.3818 25.888 74.7817 25.264 75.0697 24.528C75.3897 23.792 75.5498 22.96 75.5498 22.032C75.5498 21.104 75.3897 20.272 75.0697 19.536C74.7817 18.768 74.3818 18.128 73.8698 17.616C73.3578 17.072 72.7657 16.656 72.0938 16.368C71.4218 16.08 70.7017 15.936 69.9337 15.936C69.1657 15.936 68.4458 16.08 67.7738 16.368C67.1018 16.656 66.5098 17.072 65.9978 17.616C65.4858 18.128 65.0698 18.768 64.7498 19.536C64.4618 20.272 64.3177 21.104 64.3177 22.032Z" fill="white"/>
<path d="M86.4904 32.64C85.7544 32.224 85.3384 31.696 85.2424 31.056C85.1784 30.416 85.3704 29.728 85.8184 28.992L86.5384 27.888C87.0184 27.184 87.5304 26.784 88.0744 26.688C88.6504 26.592 89.3544 26.736 90.1864 27.12C90.7944 27.376 91.4824 27.664 92.2504 27.984C93.0184 28.272 93.8984 28.416 94.8904 28.416C95.7224 28.416 96.2984 28.288 96.6184 28.032C96.9704 27.744 97.1464 27.408 97.1464 27.024C97.1464 26.544 96.8584 26.16 96.2824 25.872C95.7064 25.584 94.9864 25.312 94.1224 25.056C93.2904 24.768 92.3624 24.464 91.3384 24.144C90.3464 23.792 89.4184 23.328 88.5544 22.752C87.7224 22.144 87.0184 21.376 86.4424 20.448C85.8664 19.488 85.5784 18.288 85.5784 16.848C85.5784 15.568 85.8344 14.448 86.3464 13.488C86.8904 12.496 87.6264 11.68 88.5544 11.04C89.4824 10.368 90.5704 9.872 91.8184 9.552C93.0664 9.2 94.4104 9.024 95.8504 9.024C97.4184 9.024 98.7784 9.2 99.9304 9.552C101.114 9.904 102.09 10.256 102.858 10.608C103.594 10.96 104.026 11.456 104.154 12.096C104.282 12.736 104.17 13.424 103.818 14.16L103.242 15.312C102.89 16.08 102.426 16.544 101.85 16.704C101.274 16.864 100.57 16.784 99.7384 16.464C99.1624 16.24 98.5224 16.032 97.8184 15.84C97.1144 15.616 96.3464 15.504 95.5144 15.504C94.6184 15.504 94.0264 15.632 93.7384 15.888C93.4504 16.144 93.3064 16.448 93.3064 16.8C93.3064 17.28 93.5944 17.664 94.1704 17.952C94.7464 18.208 95.4504 18.48 96.2824 18.768C97.1464 19.024 98.0744 19.312 99.0664 19.632C100.09 19.952 101.018 20.416 101.85 21.024C102.714 21.6 103.434 22.352 104.01 23.28C104.586 24.176 104.874 25.344 104.874 26.784C104.874 27.936 104.634 29.008 104.154 30C103.706 30.992 103.034 31.856 102.138 32.592C101.274 33.296 100.202 33.856 98.9224 34.272C97.6744 34.688 96.2664 34.896 94.6984 34.896C92.8424 34.896 91.2264 34.656 89.8504 34.176C88.4744 33.664 87.3544 33.152 86.4904 32.64Z" fill="white"/>
<path d="M109.288 16.512H108.568C106.84 16.512 105.977 15.632 105.977 13.872V12.672C105.977 10.912 106.857 10.032 108.617 10.032H109.529V5.568C109.529 3.808 110.409 2.928 112.169 2.928H114.952C116.712 2.928 117.592 3.808 117.592 5.568V10.032H120.137C121.897 10.032 122.777 10.912 122.777 12.672V13.872C122.777 15.632 121.913 16.512 120.185 16.512H117.592V24C117.592 25.056 117.88 25.824 118.456 26.304C119.064 26.752 119.737 27.024 120.473 27.12C121.433 27.248 122.105 27.488 122.489 27.84C122.905 28.192 123.113 28.832 123.113 29.76V31.92C123.113 32.912 122.825 33.6 122.249 33.984C121.673 34.368 120.824 34.56 119.704 34.56C118.776 34.56 117.72 34.432 116.536 34.176C115.352 33.92 114.217 33.456 113.129 32.784C112.041 32.112 111.129 31.2 110.393 30.048C109.657 28.864 109.288 27.36 109.288 25.536V16.512Z" fill="white"/>
<rect x="129.688" y="19" width="23.3887" height="10" rx="5" transform="rotate(-30 129.688 19)" fill="white"/>
</svg>
